<?xml version="1.0" encoding="utf-8"?>
<!-- Generator: Adobe Illustrator 27.0.0, SVG Export Plug-In . SVG Version: 6.00 Build 0)  -->
<svg version="1.1" xmlns="http://www.w3.org/2000/svg" xmlns:xlink="http://www.w3.org/1999/xlink" x="0px" y="0px"
	 viewBox="0 0 800 800" style="enable-background:new 0 0 800 800;" xml:space="preserve">
<style type="text/css">
	.st0{display:none;}
	.st1{display:inline;}
	
		.st2{clip-path:url(#SVGID_00000054982607129356208350000005896774361667434159_);fill:url(#SVGID_00000099632338871581405950000015939437896966086301_);}
	.st3{fill:url(#SVGID_00000092427110104154107540000007878962041475936922_);}
</style>
<g id="Layer_1" class="st0">
	<g class="st1">
		<defs>
			<path id="SVGID_1_" d="M377.2,258.8l4.1,2.4l4.1,2.4v4.8v4.8l-4.1,2.4l-4.1,2.4l-4.1-2.4l-4.1-2.4v-4.8v-4.8l4.1-2.4L377.2,258.8
				z M302.6,200.1l5.2,3l5.2,3v6v6l-5.2,3l-5.2,3l-5.2-3l-5.2-3v-6v-6l5.2-3L302.6,200.1z M436.1,207.9l5.2,3l5.2,3v6v6l-5.2,3
				l-5.2,3l-5.2-3l-5.2-3v-6v-6l5.2-3L436.1,207.9z M451.8,272.3l6.6,3.8l6.6,3.8v7.7v7.7l-6.6,3.8l-6.6,3.8l-6.6-3.8l-6.6-3.8v-7.7
				V280l6.6-3.8L451.8,272.3z M453.9,352.6l9.2,5.3l9.2,5.3v10.6v10.6l-9.2,5.3l-9.2,5.3l-9.2-5.3l-9.2-5.3v-10.6v-10.6l9.2-5.3
				L453.9,352.6z M397.2,375.1l6.1,3.5l6.1,3.5v7.1v7.1l-6.1,3.5l-6.1,3.5l-6.1-3.5l-6.1-3.5v-7.1v-7.1l6.1-3.5L397.2,375.1z
				 M327.4,358.8l7.9,4.5l7.9,4.5v9.1v9.1l-7.9,4.5l-7.9,4.5l-7.9-4.5l-7.9-4.5V377v-9.1l7.9-4.5L327.4,358.8z M167.1,357.4l7.9,4.5
				l7.9,4.5v9.1v9.1l-7.9,4.5l-7.9,4.5l-7.9-4.5l-7.9-4.5v-9.1v-9.1l7.9-4.5L167.1,357.4z M230.1,275.7l13.3,7.7l13.3,7.7v15.3v15.3
				l-13.3,7.7l-13.3,7.7l-13.3-7.7l-13.3-7.7v-15.3V291l13.3-7.7L230.1,275.7z M139.6,253.2l19.8,11.4l19.8,11.4V299v22.9
				l-19.8,11.4l-19.8,11.4l-19.8-11.4L100,321.8V299v-22.9l19.8-11.4L139.6,253.2z M226.1,187.8l14.7,8.5l14.7,8.5v17v17l-14.7,8.5
				l-14.7,8.5l-14.7-8.5l-14.7-8.5v-17v-17l14.7-8.5L226.1,187.8z M382.5,163.7l14.7,8.5l14.7,8.5v17v17l-14.7,8.5l-14.7,8.5
				l-14.7-8.5l-14.7-8.5v-17v-17l14.7-8.5L382.5,163.7z M479.4,214.6l10.6,6.1l10.6,6.1V239v12.2l-10.6,6.1l-10.6,6.1l-10.6-6.1
				l-10.6-6.1V239v-12.2l10.6-6.1L479.4,214.6z M510.8,311.7l13.4,7.7l13.4,7.7v15.5v15.5l-13.4,7.7l-13.4,7.7l-13.4-7.7l-13.4-7.7
				v-15.5v-15.5l13.4-7.7L510.8,311.7z M415.4,305.7l10.1,5.8l10.1,5.8V329v11.6l-10.1,5.8l-10.1,5.8l-10.1-5.8l-10.1-5.8V329v-11.6
				l10.1-5.8L415.4,305.7z M319.1,260.6l17,9.8l17,9.8v19.7v19.7l-17,9.8l-17,9.8l-17-9.8l-17-9.8v-19.7v-19.7l17-9.8L319.1,260.6z
				 M235.5,358.2l15,8.7l15,8.7v17.3v17.3l-15,8.7l-15,8.7l-15-8.7l-15-8.7v-17.3v-17.3l15-8.7L235.5,358.2z M346.6,411.3l15,8.7
				l15,8.7V446v17.3l-15,8.7l-15,8.7l-15-8.7l-15-8.7V446v-17.3l15-8.7L346.6,411.3z M466.1,401.2l17.2,10l17.2,10v19.9V461
				l-17.2,10l-17.2,10l-17.2-10l-17.2-10v-19.9v-19.9l17.2-10L466.1,401.2z M407.1,505.5l17.2,10l17.2,10v19.9v19.9l-17.2,10
				l-17.2,10l-17.2-10l-17.2-10v-19.9v-19.9l17.2-10L407.1,505.5z M440.9,200.1h143.8l75.1,130v0.1l20.9,36.2l-70.9,113.6L700,636.3
				H488L454.4,578l-1-48.4l23-34l46.3,80.2h73l-56.1-97.2l70.9-113.6l-2.8-4.8l-0.1,0L550,260.5h-47.4l7-4v-35L479.4,204
				L440.9,200.1z"/>
		</defs>
		<clipPath id="SVGID_00000046335905498978967630000001555609629250486173_">
			<use xlink:href="#SVGID_1_"  style="overflow:visible;"/>
		</clipPath>
		
			<linearGradient id="SVGID_00000011729874413747814410000004934369484259808656_" gradientUnits="userSpaceOnUse" x1="726.9462" y1="671.7407" x2="138.9491" y2="183.028">
			<stop  offset="0" style="stop-color:#0E2424"/>
			<stop  offset="0.3853" style="stop-color:#3D5A3B"/>
			<stop  offset="1" style="stop-color:#F5ED50"/>
		</linearGradient>
		
			<rect x="100" y="163.7" style="clip-path:url(#SVGID_00000046335905498978967630000001555609629250486173_);fill:url(#SVGID_00000011729874413747814410000004934369484259808656_);" width="600" height="472.5"/>
	</g>
</g>
<g id="Layer_2">
	<g>
		
			<linearGradient id="SVGID_00000029014637142631544570000009384042538075089050_" gradientUnits="userSpaceOnUse" x1="1466.0741" y1="653.2288" x2="977.6507" y2="247.2766" gradientTransform="matrix(6.123234e-17 1 -1 6.123234e-17 1649.5057 -794.4943)">
			<stop  offset="0" style="stop-color:#0E2424"/>
			<stop  offset="0.5343" style="stop-color:#3D5A3B"/>
			<stop  offset="0.606" style="stop-color:#415D3C;stop-opacity:0.9692"/>
			<stop  offset="0.6772" style="stop-color:#4B643E;stop-opacity:0.9386"/>
			<stop  offset="0.7482" style="stop-color:#5C7042;stop-opacity:0.9081"/>
			<stop  offset="0.8192" style="stop-color:#768347;stop-opacity:0.8776"/>
			<stop  offset="0.8902" style="stop-color:#9AA04C;stop-opacity:0.8472"/>
			<stop  offset="0.9602" style="stop-color:#CDC950;stop-opacity:0.8171"/>
			<stop  offset="1" style="stop-color:#F5ED50;stop-opacity:0.8"/>
		</linearGradient>
		<path style="fill:url(#SVGID_00000029014637142631544570000009384042538075089050_);" d="M1457.5,186l-167.9-97
			c-41.8-24.1-93.3-24.1-135.2,0l-167.9,97c-41.8,24.1-67.6,68.8-67.6,117.1V497c0,48.3,25.8,92.9,67.6,117.1l167.9,97
			c41.8,24.1,93.3,24.1,135.2,0l167.9-97c41.8-24.1,67.6-68.8,67.6-117.1V303C1525.1,254.7,1499.3,210.1,1457.5,186z M1248.7,346.7
			v8.7l-7.6,4.4l-7.6,4.4l-7.6-4.4l-7.6-4.4v-8.7V338l7.6-4.4l7.6-4.4l7.6,4.4l7.6,4.4V346.7z M1255.6,368.4l6.9-4l6.9,4l6.9,4v7.9
			v7.9l-6.9,4l-6.9,4l-6.9-4l-6.9-4v-7.9v-7.9L1255.6,368.4z M1253.2,494V509v14.9l-12.9,7.5l-12.9,7.5l-12.9-7.5l-12.9-7.5V509V494
			l12.9-7.5l12.9-7.5l12.9,7.5L1253.2,494z M1219.9,381.3l4.6,2.7l4.6,2.7v5.3v5.3l-4.6,2.7l-4.6,2.7l-4.6-2.7l-4.6-2.7V392v-5.3
			l4.6-2.7L1219.9,381.3z M1211.1,301.3v3.6l-3.1,1.8l-3.1,1.8l-3.1-1.8l-3.1-1.8v-3.6v-3.6l3.1-1.8l3.1-1.8l3.1,1.8l3.1,1.8V301.3z
			 M1204.4,421.5v13v13l-11.2,6.5l-11.2,6.5l-11.2-6.5l-11.2-6.5v-13v-13l11.2-6.5l11.2-6.5l11.2,6.5L1204.4,421.5z M1155.8,389.6
			v-6.8v-6.8l5.9-3.4l5.9-3.4l5.9,3.4l5.9,3.4v6.8v6.8l-5.9,3.4l-5.9,3.4l-5.9-3.4L1155.8,389.6z M1186.9,325v14.7l-12.8,7.4
			l-12.8,7.4l-12.8-7.4l-12.8-7.4V325v-14.8l12.8-7.4l12.8-7.4l12.8,7.4l12.8,7.4V325z M1141.2,263.5V259v-4.5l3.9-2.2l3.9-2.2
			l3.9,2.2l3.9,2.2v4.5v4.5l-3.9,2.2l-3.9,2.2l-3.9-2.2L1141.2,263.5z M1074.6,329.8v-11.5l10-5.7l10-5.7l10,5.7l10,5.7v11.5v11.5
			l-10,5.7l-10,5.7l-10-5.7l-10-5.7V329.8z M1069.6,279v-12.7v-12.7l11-6.4l11-6.4l11,6.4l11,6.4v12.7V279l-11,6.4l-11,6.4l-11-6.4
			L1069.6,279z M1076.1,394.7v-13l11.2-6.5l11.2-6.5l11.2,6.5l11.2,6.5v13v13l-11.2,6.5l-11.2,6.5l-11.2-6.5l-11.2-6.5V394.7z
			 M1035.6,388.5v-6.8v-6.8l5.9-3.4l5.9-3.4l5.9,3.4l5.9,3.4v6.8v6.8l-5.9,3.4l-5.9,3.4l-5.9-3.4L1035.6,388.5z M1245.7,445.7v-14.9
			v-14.9l12.9-7.5l12.9-7.5l12.9,7.5l12.9,7.5v14.9v14.9l-12.9,7.5l-12.9,7.5l-12.9-7.5L1245.7,445.7z M1295.1,374.5l-10.1-5.8V357
			v-11.6l10.1-5.8l10.1-5.8l10.1,5.8l10.1,5.8V357v11.6l-10.1,5.8l-10.1,5.8L1295.1,374.5z M1297.4,279.2v9.2l-7.9,4.6l-7.9,4.6
			l-7.9-4.6l-7.9-4.6v-9.2v-9.2l7.9-4.6l7.9-4.6l7.9,4.6l7.9,4.6V279.2z M1265.8,307.1l5,2.9v5.7v5.7l-5,2.9l-5,2.9l-5-2.9l-5-2.9
			v-5.7V310l5-2.9l5-2.9L1265.8,307.1z M1256.8,264.8v4.5l-3.9,2.2l-3.9,2.2l-3.9-2.2l-3.9-2.2v-4.5v-4.5l3.9-2.2l3.9-2.2l3.9,2.2
			l3.9,2.2V264.8z M1219.9,229.2l11,6.4v12.7V261l-11,6.4l-11,6.4l-11-6.4l-11-6.4v-12.7v-12.7l11-6.4l11-6.4L1219.9,229.2z
			 M997,324.2v-17.1l14.8-8.6l14.9-8.6l14.9,8.6l14.8,8.6v17.1v17.1l-14.8,8.6l-14.9,8.6l-14.9-8.6l-14.8-8.6V324.2z M1288,577.2
			l-25.2-43.7l-0.7-36.3l17.2-25.5l34.7,60.2h54.8l-42.1-72.9l53.2-85.2l-2.1-3.6l0,0l-43.2-74.9H1299l5.3-3v-26.2l-22.7-13.1
			l-28.8-2.9h107.8l56.3,97.5v0.1l15.7,27.2l-53.2,85.2l67.6,117.1H1288z"/>
	</g>
</g>
</svg>
