<?xml version="1.0" encoding="utf-8"?>
<svg xmlns="http://www.w3.org/2000/svg" viewBox="0 0 30 30" width="480" height="480">
  <path d="M8.999,27v-3h-3c-1.105,0-2-0.893-2-2v-4H3.997C2.893,18,2,17.107,2,16c0-0.6,0-1.4,0-2c0-1.107,0.895-2,1.997-2l0.001-3c0-1.107,0.895-2,2-2h8l-0.001-1.267c-0.597-0.347-0.999-1-0.999-1.733c0-1.107,0.896-2,2-2s2,0.893,2,2c0,0.733-0.403,1.387-0.999,1.733V7h7.999c1.104,0,2,0.893,2,2v3C27.101,12,28,12.893,28,14c0,0.6,0,1.4,0,2c0,1.107-0.896,2-2,2l-0.001,4c0,1.107-0.896,2-2,2H13.496l-2.66,3.547C10.652,27.827,10.337,28,9.999,28C9.445,28,8.999,27.547,8.999,27z M17.999,17h-6.003c0.445,1.16,1.624,2,3.001,2C16.377,19,17.553,18.16,17.999,17z M12.999,13.493c0-0.827-0.672-1.493-1.5-1.493s-1.5,0.667-1.5,1.493S10.671,15,11.499,15S12.999,14.32,12.999,13.493z M19.999,13.493c0-0.827-0.672-1.493-1.5-1.493s-1.5,0.667-1.5,1.493S17.671,15,18.499,15S19.999,14.32,19.999,13.493z" fill="#FFFFFF" />
</svg>