<?xml version="1.0" encoding="utf-8"?>
<svg xmlns="http://www.w3.org/2000/svg" viewBox="0 0 30 30" width="480" height="480">
  <path d="M13 4C9.803 4 7.9570312 6.494 7.9570312 9.5C7.9570312 10.512 8.4414063 11.529297 8.4414062 11.529297C8.2474062 11.641297 7.9278125 11.998906 8.0078125 12.628906C8.1578125 13.804906 8.6671875 14.101953 8.9921875 14.126953C9.1161875 15.224953 10.587 16.796 11 17L11 18.667969C10.083 21.417969 4 20 4 26L22 26C22 20 15.917 21.417969 15 18.667969L15 17C15.413 16.796 16.883813 15.224953 17.007812 14.126953C17.332812 14.101953 17.841188 13.804906 17.992188 12.628906C18.073187 11.996906 17.753594 11.641297 17.558594 11.529297C17.558594 11.529297 18.042969 10.611 18.042969 9.5C18.042969 7.274 17.168969 5.375 15.292969 5.375C15.292969 5.375 14.949 4 13 4 z M 19.292969 6C19.767969 6.964 20.042969 8.1439531 20.042969 9.5019531C20.042969 10.167953 19.929016 10.773672 19.791016 11.263672C19.971016 11.721672 20.055563 12.263813 19.976562 12.882812C19.811563 14.170813 19.298922 15.015531 18.669922 15.519531C18.599922 15.682531 18.512734 15.842953 18.427734 16.001953L19 16.001953L19 19.001953L22.996094 16.001953L27 16.001953C28.657 16.001953 30 14.658953 30 13.001953L30 9C30 7.343 28.657 6 27 6L19.292969 6 z" fill="#FFFFFF" />
</svg>