<?xml version="1.0" encoding="utf-8"?>
<!-- Generator: Adobe Illustrator 27.0.0, SVG Export Plug-In . SVG Version: 6.00 Build 0)  -->
<svg version="1.1" xmlns="http://www.w3.org/2000/svg" xmlns:xlink="http://www.w3.org/1999/xlink" x="0px" y="0px"
	 viewBox="0 0 800 800" style="enable-background:new 0 0 800 800;" xml:space="preserve">
<style type="text/css">
	
		.st0{clip-path:url(#SVGID_00000151507823457606573790000008762035193439422629_);fill:url(#SVGID_00000155148472640972418380000007610568506228994986_);stroke:#3B8D99;stroke-miterlimit:10;}
	.st1{fill:url(#SVGID_00000033369961804735798630000016680637827999962805_);}
	.st2{fill:#FFFFFF;stroke:#000000;stroke-width:5;stroke-miterlimit:10;}
	
		.st3{clip-path:url(#SVGID_00000142136897265217775640000008855618805878636689_);fill:#FFFFFF;stroke:#000000;stroke-width:5;stroke-miterlimit:10;}
</style>
<g id="Layer_1">
	<g>
		<defs>
			<path id="SVGID_1_" d="M371.5,223.5l5.1,3l5.1,3v5.9v5.9l-5.1,3l-5.1,3l-5.1-3l-5.1-3v-5.9v-5.9l5.1-3L371.5,223.5z M278.2,150.1
				l6.5,3.7l6.5,3.7v7.5v7.5l-6.5,3.7l-6.5,3.7l-6.5-3.7l-6.5-3.7V165v-7.5l6.5-3.7L278.2,150.1z M445.1,159.8l6.5,3.7l6.5,3.7v7.5
				v7.5l-6.5,3.7l-6.5,3.7l-6.5-3.7l-6.5-3.7v-7.5v-7.5l6.5-3.7L445.1,159.8z M464.8,240.4l8.3,4.8l8.3,4.8v9.6v9.6l-8.3,4.8
				l-8.3,4.8l-8.3-4.8l-8.3-4.8v-9.6V250l8.3-4.8L464.8,240.4z M467.4,340.7l11.5,6.6l11.5,6.6v13.2v13.2l-11.5,6.6l-11.5,6.6
				l-11.5-6.6l-11.5-6.6v-13.2v-13.2l11.5-6.6L467.4,340.7z M396.6,368.9l7.7,4.4l7.7,4.4v8.9v8.9l-7.7,4.4l-7.7,4.4l-7.7-4.4
				l-7.7-4.4v-8.9v-8.9l7.7-4.4L396.6,368.9z M309.3,348.5l9.8,5.7l9.8,5.7v11.4v11.4l-9.8,5.7l-9.8,5.7l-9.8-5.7l-9.8-5.7v-11.4
				v-11.4l9.8-5.7L309.3,348.5z M108.9,346.7l9.8,5.7l9.8,5.7v11.4v11.4l-9.8,5.7l-9.8,5.7l-9.8-5.7l-9.8-5.7v-11.4V358l9.8-5.7
				L108.9,346.7z M187.6,244.6l16.6,9.6l16.6,9.6v19.2v19.2l-16.6,9.6l-16.6,9.6l-16.6-9.6l-16.6-9.6v-19.2v-19.2l16.6-9.6
				L187.6,244.6z M74.5,216.5l24.8,14.3l24.7,14.3v28.6v28.6l-24.7,14.3l-24.8,14.3l-24.8-14.3L25,302.3v-28.6v-28.6l24.7-14.3
				L74.5,216.5z M182.7,134.8l18.4,10.6l18.4,10.6v21.2v21.2L201,209l-18.4,10.6L164.3,209l-18.4-10.6v-21.2V156l18.4-10.6
				L182.7,134.8z M378.1,104.7l18.4,10.6l18.4,10.6v21.2v21.2l-18.4,10.6l-18.4,10.6l-18.4-10.6l-18.4-10.6v-21.2v-21.2l18.4-10.6
				L378.1,104.7z M499.2,168.2l13.2,7.6l13.2,7.6v15.3V214l-13.2,7.6l-13.2,7.6l-13.2-7.6l-13.2-7.6v-15.3v-15.3l13.2-7.6
				L499.2,168.2z M538.5,289.7l16.8,9.7l16.8,9.7v19.4v19.4l-16.8,9.7l-16.8,9.7l-16.8-9.7l-16.8-9.7v-19.4V309l16.8-9.7
				L538.5,289.7z M419.3,282.1l12.6,7.3l12.6,7.3v14.5v14.5l-12.6,7.3l-12.6,7.3l-12.6-7.3l-12.6-7.3v-14.5v-14.5l12.6-7.3
				L419.3,282.1z M298.8,225.8l21.3,12.3l21.3,12.3v24.6v24.6l-21.3,12.3l-21.3,12.3l-21.3-12.3l-21.3-12.3v-24.6v-24.6l21.3-12.3
				L298.8,225.8z M194.4,347.8l18.7,10.8l18.7,10.8v21.6v21.6l-18.7,10.8l-18.7,10.8l-18.7-10.8l-18.7-10.8v-21.6v-21.6l18.7-10.8
				L194.4,347.8z M333.3,414.2L352,425l18.7,10.8v21.6v21.6L352,489.9l-18.7,10.8l-18.7-10.8l-18.7-10.8v-21.6v-21.6l18.7-10.8
				L333.3,414.2z M482.6,401.5l21.6,12.4l21.6,12.4v24.9v24.9l-21.6,12.4l-21.6,12.4l-21.6-12.4l-21.6-12.4v-24.9v-24.9l21.6-12.4
				L482.6,401.5z M408.9,531.8l21.6,12.4l21.6,12.4v24.9v24.9L430.4,619l-21.6,12.4L387.3,619l-21.6-12.4v-24.9v-24.9l21.6-12.4
				L408.9,531.8z M451.2,150.1h179.7l93.9,162.6v0.1l26.1,45.3l-88.6,141.9L775,695.3H510l-42-72.8l-1.2-60.5l28.7-42.5l57.9,100.3
				h91.3l-70.1-121.5l88.6-142l-3.5-6l-0.1,0l-72.1-124.8h-59.2l8.8-5.1v-43.7L499.2,155L451.2,150.1z"/>
		</defs>
		<clipPath id="SVGID_00000070817901977590737020000001019066056477085586_">
			<use xlink:href="#SVGID_1_"  style="overflow:visible;"/>
		</clipPath>
		
			<linearGradient id="SVGID_00000093178588238511907620000012596846804668755337_" gradientUnits="userSpaceOnUse" x1="876.7964" y1="796.2885" x2="19.3007" y2="83.5825">
			<stop  offset="0" style="stop-color:#3B8D99"/>
			<stop  offset="0.5343" style="stop-color:#6C6B83"/>
			<stop  offset="0.6386" style="stop-color:#6F6A82;stop-opacity:0.9552"/>
			<stop  offset="0.7421" style="stop-color:#7A677F;stop-opacity:0.9107"/>
			<stop  offset="0.8454" style="stop-color:#896079;stop-opacity:0.8664"/>
			<stop  offset="0.948" style="stop-color:#9E5571;stop-opacity:0.8223"/>
			<stop  offset="1" style="stop-color:#AB4C6C;stop-opacity:0.8"/>
		</linearGradient>
		
			<rect x="-37.5" y="55.5" style="clip-path:url(#SVGID_00000070817901977590737020000001019066056477085586_);fill:url(#SVGID_00000093178588238511907620000012596846804668755337_);stroke:#3B8D99;stroke-miterlimit:10;" width="875" height="689.1"/>
	</g>
</g>
<g id="Layer_2">
	<g>
		
			<linearGradient id="SVGID_00000093168807368219721780000011996006199798295710_" gradientUnits="userSpaceOnUse" x1="977.9374" y1="693.645" x2="1466.0625" y2="106.355">
			<stop  offset="0" style="stop-color:#3B8D99"/>
			<stop  offset="0.5343" style="stop-color:#6C6B83"/>
			<stop  offset="0.6386" style="stop-color:#6F6A82;stop-opacity:0.9552"/>
			<stop  offset="0.7421" style="stop-color:#7A677F;stop-opacity:0.9107"/>
			<stop  offset="0.8454" style="stop-color:#896079;stop-opacity:0.8664"/>
			<stop  offset="0.948" style="stop-color:#9E5571;stop-opacity:0.8223"/>
			<stop  offset="1" style="stop-color:#AB4C6C;stop-opacity:0.8"/>
		</linearGradient>
		<path style="fill:url(#SVGID_00000093168807368219721780000011996006199798295710_);" d="M1505.6,142.3L1303.4,25.5
			c-50.4-29.1-112.4-29.1-162.8,0L938.4,142.3c-50.4,29.1-81.4,82.8-81.4,141v233.5c0,58.2,31,111.9,81.4,141l202.2,116.8
			c50.4,29.1,112.4,29.1,162.8,0l202.2-116.8c50.4-29.1,81.4-82.8,81.4-141V283.2C1587,225.1,1556,171.4,1505.6,142.3z
			 M1254.2,335.8v10.5l-9.1,5.3l-9.1,5.3l-9.1-5.3l-9.1-5.3v-10.5v-10.5l9.1-5.3l9.1-5.3l9.1,5.3l9.1,5.3V335.8z M1262.4,361.9
			l8.3-4.8l8.3,4.8l8.3,4.8v9.6v9.6l-8.3,4.8l-8.3,4.8l-8.3-4.8l-8.3-4.8v-9.6v-9.6L1262.4,361.9z M1259.5,513.2v18v18l-15.6,9
			l-15.6,9l-15.6-9l-15.6-9v-18v-18l15.6-9l15.6-9l15.6,9L1259.5,513.2z M1219.5,377.5l5.6,3.2l5.5,3.2v6.4v6.4l-5.5,3.2l-5.6,3.2
			l-5.6-3.2l-5.6-3.2v-6.4v-6.4l5.6-3.2L1219.5,377.5z M1208.9,281.1v4.3l-3.7,2.1l-3.7,2.1l-3.7-2.1l-3.7-2.1v-4.3v-4.3l3.7-2.1
			l3.7-2.1l3.7,2.1l3.7,2.1V281.1z M1200.9,425.9v15.6v15.6l-13.5,7.8l-13.5,7.8l-13.5-7.8l-13.5-7.8v-15.6v-15.6l13.5-7.8l13.5-7.8
			l13.5,7.8L1200.9,425.9z M1142.2,387.4v-8.2V371l7.1-4.1l7.1-4.1l7.1,4.1l7.1,4.1v8.2v8.2l-7.1,4.1l-7.1,4.1l-7.1-4.1
			L1142.2,387.4z M1179.7,309.6v17.8l-15.4,8.9l-15.4,8.9l-15.4-8.9l-15.4-8.9v-17.8v-17.8l15.4-8.9l15.4-8.9l15.4,8.9l15.4,8.9
			V309.6z M1124.7,235.6v-5.4v-5.4l4.7-2.7l4.7-2.7l4.7,2.7l4.7,2.7v5.4v5.4l-4.7,2.7l-4.7,2.7l-4.7-2.7L1124.7,235.6z
			 M1044.6,315.4v-13.8l12-6.9l12-6.9l12,6.9l12,6.9v13.8v13.8l-12,6.9l-12,6.9l-12-6.9l-12-6.9V315.4z M1038.4,254.3V239v-15.3
			l13.3-7.7l13.3-7.7l13.3,7.7l13.3,7.7V239v15.3l-13.3,7.7l-13.3,7.7l-13.3-7.7L1038.4,254.3z M1046.3,393.6v-15.6l13.5-7.8
			l13.5-7.8l13.5,7.8l13.5,7.8v15.6v15.6L1087,417l-13.5,7.8l-13.5-7.8l-13.5-7.8V393.6z M997.5,386.1v-8.2v-8.2l7.1-4.1l7.1-4.1
			l7.1,4.1l7.1,4.1v8.2v8.2l-7.1,4.1l-7.1,4.1l-7.1-4.1L997.5,386.1z M1250.5,455.1v-18v-18l15.6-9l15.6-9l15.6,9l15.6,9v18v18
			l-15.6,9l-15.6,9l-15.6-9L1250.5,455.1z M1310,369.2l-12.1-7v-14v-14l12.1-7l12.1-7l12.1,7l12.1,7v14v14l-12.1,7l-12.1,7
			L1310,369.2z M1312.8,254.6v11l-9.5,5.5l-9.5,5.5l-9.5-5.5l-9.5-5.5v-11v-11l9.5-5.5l9.5-5.5l9.5,5.5l9.5,5.5V254.6z
			 M1274.8,288.1l6,3.5v6.9v6.9l-6,3.5l-6,3.5l-6-3.5l-6-3.5v-6.9v-6.9l6-3.5l6-3.5L1274.8,288.1z M1263.9,237.2v5.4l-4.7,2.7
			l-4.7,2.7l-4.7-2.7l-4.7-2.7v-5.4v-5.4l4.7-2.7l4.7-2.7l4.7,2.7l4.7,2.7V237.2z M1219.5,194.3l13.3,7.7v15.3v15.3l-13.3,7.7
			l-13.3,7.7l-13.3-7.7l-13.3-7.7v-15.3v-15.3l13.3-7.7l13.3-7.7L1219.5,194.3z M951.1,308.7v-20.6l17.9-10.3l17.9-10.3l17.9,10.3
			l17.9,10.3v20.6v20.6l-17.9,10.3L986.8,350l-17.9-10.3l-17.9-10.3V308.7z M1301.5,613.4l-30.4-52.6l-0.9-43.7l20.7-30.7l41.8,72.5
			h66l-50.7-87.8l64-102.6l-2.5-4.4l0,0l-52.1-90.2h-42.8l6.3-3.7v-31.6l-27.3-15.8l-34.7-3.5h129.8l67.8,117.4v0.1l18.9,32.7
			l-64,102.6l81.4,141.1H1301.5z"/>
	</g>
</g>
<g id="Layer_4">
	<g>
		<path class="st2" d="M635.5,1008l-167.9-97c-41.8-24.1-93.3-24.1-135.2,0l-167.9,97c-41.8,24.1-67.6,68.8-67.6,117.1V1319
			c0,48.3,25.8,92.9,67.6,117.1l167.9,97c41.8,24.1,93.3,24.1,135.2,0l167.9-97c41.8-24.1,67.6-68.8,67.6-117.1V1125
			C703.1,1076.7,677.3,1032.1,635.5,1008z M426.7,1168.7v8.7l-7.6,4.4l-7.6,4.4l-7.6-4.4l-7.6-4.4v-8.7v-8.7l7.6-4.4l7.6-4.4
			l7.6,4.4l7.6,4.4V1168.7z M433.6,1190.4l6.9-4l6.9,4l6.9,4v7.9v7.9l-6.9,4l-6.9,4l-6.9-4l-6.9-4v-7.9v-7.9L433.6,1190.4z
			 M431.2,1316v14.9v14.9l-12.9,7.5l-12.9,7.5l-12.9-7.5l-12.9-7.5V1331V1316l12.9-7.5l12.9-7.5l12.9,7.5L431.2,1316z M397.9,1203.3
			l4.6,2.7l4.6,2.7v5.3v5.3l-4.6,2.7l-4.6,2.7l-4.6-2.7l-4.6-2.7v-5.3v-5.3l4.6-2.7L397.9,1203.3z M389.1,1123.3v3.6l-3.1,1.8
			l-3.1,1.8l-3.1-1.8l-3.1-1.8v-3.6v-3.6l3.1-1.8l3.1-1.8l3.1,1.8l3.1,1.8V1123.3z M382.4,1243.5v13v13l-11.2,6.5l-11.2,6.5
			l-11.2-6.5l-11.2-6.5v-13v-13l11.2-6.5l11.2-6.5l11.2,6.5L382.4,1243.5z M333.8,1211.6v-6.8v-6.8l5.9-3.4l5.9-3.4l5.9,3.4l5.9,3.4
			v6.8v6.8l-5.9,3.4l-5.9,3.4l-5.9-3.4L333.8,1211.6z M364.9,1147v14.7l-12.8,7.4l-12.8,7.4l-12.8-7.4l-12.8-7.4V1147v-14.8
			l12.8-7.4l12.8-7.4l12.8,7.4l12.8,7.4V1147z M319.2,1085.5v-4.5v-4.5l3.9-2.2l3.9-2.2l3.9,2.2l3.9,2.2v4.5v4.5l-3.9,2.2l-3.9,2.2
			l-3.9-2.2L319.2,1085.5z M252.6,1151.8v-11.5l10-5.7l10-5.7l10,5.7l10,5.7v11.5v11.5l-10,5.7l-10,5.7l-10-5.7l-10-5.7V1151.8z
			 M247.6,1101v-12.7v-12.7l11-6.4l11-6.4l11,6.4l11,6.4v12.7v12.7l-11,6.4l-11,6.4l-11-6.4L247.6,1101z M254.1,1216.7v-13l11.2-6.5
			l11.2-6.5l11.2,6.5l11.2,6.5v13v13l-11.2,6.5l-11.2,6.5l-11.2-6.5l-11.2-6.5V1216.7z M213.6,1210.5v-6.8v-6.8l5.9-3.4l5.9-3.4
			l5.9,3.4l5.9,3.4v6.8v6.8l-5.9,3.4l-5.9,3.4l-5.9-3.4L213.6,1210.5z M423.7,1267.7v-14.9v-14.9l12.9-7.5l12.9-7.5l12.9,7.5
			l12.9,7.5v14.9v14.9l-12.9,7.5l-12.9,7.5l-12.9-7.5L423.7,1267.7z M473.1,1196.5l-10.1-5.8V1179v-11.6l10.1-5.8l10.1-5.8l10.1,5.8
			l10.1,5.8v11.6v11.6l-10.1,5.8l-10.1,5.8L473.1,1196.5z M475.4,1101.2v9.2l-7.9,4.6l-7.9,4.6l-7.9-4.6l-7.9-4.6v-9.2v-9.2l7.9-4.6
			l7.9-4.6l7.9,4.6l7.9,4.6V1101.2z M443.8,1129.1l5,2.9v5.7v5.7l-5,2.9l-5,2.9l-5-2.9l-5-2.9v-5.7v-5.7l5-2.9l5-2.9L443.8,1129.1z
			 M434.8,1086.8v4.5l-3.9,2.2l-3.9,2.2l-3.9-2.2l-3.9-2.2v-4.5v-4.5l3.9-2.2l3.9-2.2l3.9,2.2l3.9,2.2V1086.8z M397.9,1051.2l11,6.4
			v12.7v12.7l-11,6.4l-11,6.4l-11-6.4l-11-6.4v-12.7v-12.7l11-6.4l11-6.4L397.9,1051.2z M175,1146.2v-17.1l14.8-8.6l14.9-8.6
			l14.9,8.6l14.8,8.6v17.1v17.1l-14.8,8.6l-14.9,8.6l-14.9-8.6l-14.8-8.6V1146.2z M466,1399.2l-25.2-43.7l-0.7-36.3l17.2-25.5
			l34.7,60.2h54.8l-42.1-72.9l53.2-85.2l-2.1-3.6l0,0l-43.2-74.9H477l5.3-3v-26.2l-22.7-13.1l-28.8-2.9h107.8l56.3,97.5v0.1
			l15.7,27.2l-53.2,85.2l67.6,117.1H466z"/>
	</g>
</g>
<g id="Layer_3">
	<g>
		<defs>
			<path id="SVGID_00000145741252215095336800000013012605349222857372_" d="M1199.2,1116.3l4.1,2.4l4.1,2.4v4.8v4.8l-4.1,2.4
				l-4.1,2.4l-4.1-2.4l-4.1-2.4v-4.8v-4.8l4.1-2.4L1199.2,1116.3z M1124.6,1057.6l5.2,3l5.2,3v6v6l-5.2,3l-5.2,3l-5.2-3l-5.2-3v-6
				v-6l5.2-3L1124.6,1057.6z M1258.1,1065.4l5.2,3l5.2,3v6v6l-5.2,3l-5.2,3l-5.2-3l-5.2-3v-6v-6l5.2-3L1258.1,1065.4z
				 M1273.8,1129.8l6.6,3.8l6.6,3.8v7.7v7.7l-6.6,3.8l-6.6,3.8l-6.6-3.8l-6.6-3.8v-7.7v-7.7l6.6-3.8L1273.8,1129.8z M1275.9,1210.1
				l9.2,5.3l9.2,5.3v10.6v10.6l-9.2,5.3l-9.2,5.3l-9.2-5.3l-9.2-5.3v-10.6v-10.6l9.2-5.3L1275.9,1210.1z M1219.2,1232.6l6.1,3.5
				l6.1,3.5v7.1v7.1l-6.1,3.5l-6.1,3.5l-6.1-3.5l-6.1-3.5v-7.1v-7.1l6.1-3.5L1219.2,1232.6z M1149.4,1216.3l7.9,4.5l7.9,4.5v9.1v9.1
				l-7.9,4.5l-7.9,4.5l-7.9-4.5l-7.9-4.5v-9.1v-9.1l7.9-4.5L1149.4,1216.3z M989.1,1214.9l7.9,4.5l7.9,4.5v9.1v9.1l-7.9,4.5
				l-7.9,4.5l-7.9-4.5l-7.9-4.5v-9.1v-9.1l7.9-4.5L989.1,1214.9z M1052.1,1133.2l13.3,7.7l13.3,7.7v15.3v15.3l-13.3,7.7l-13.3,7.7
				l-13.3-7.7l-13.3-7.7v-15.3v-15.3l13.3-7.7L1052.1,1133.2z M961.6,1110.7l19.8,11.4l19.8,11.4v22.9v22.9l-19.8,11.4l-19.8,11.4
				l-19.8-11.4l-19.8-11.4v-22.9v-22.9l19.8-11.4L961.6,1110.7z M1048.1,1045.3l14.7,8.5l14.7,8.5v17v17l-14.7,8.5l-14.7,8.5
				l-14.7-8.5l-14.7-8.5v-17v-17l14.7-8.5L1048.1,1045.3z M1204.5,1021.2l14.7,8.5l14.7,8.5v17v17l-14.7,8.5l-14.7,8.5l-14.7-8.5
				l-14.7-8.5v-17v-17l14.7-8.5L1204.5,1021.2z M1301.4,1072.1l10.6,6.1l10.6,6.1v12.2v12.2l-10.6,6.1l-10.6,6.1l-10.6-6.1
				l-10.6-6.1v-12.2v-12.2l10.6-6.1L1301.4,1072.1z M1332.8,1169.2l13.4,7.7l13.4,7.7v15.5v15.5l-13.4,7.7l-13.4,7.7l-13.4-7.7
				l-13.4-7.7v-15.5v-15.5l13.4-7.7L1332.8,1169.2z M1237.4,1163.2l10.1,5.8l10.1,5.8v11.6v11.6l-10.1,5.8l-10.1,5.8l-10.1-5.8
				l-10.1-5.8v-11.6v-11.6l10.1-5.8L1237.4,1163.2z M1141.1,1118.1l17,9.8l17,9.8v19.7v19.7l-17,9.8l-17,9.8l-17-9.8l-17-9.8v-19.7
				v-19.7l17-9.8L1141.1,1118.1z M1057.5,1215.7l15,8.7l15,8.7v17.3v17.3l-15,8.7l-15,8.7l-15-8.7l-15-8.7v-17.3v-17.3l15-8.7
				L1057.5,1215.7z M1168.6,1268.8l15,8.7l15,8.7v17.3v17.3l-15,8.7l-15,8.7l-15-8.7l-15-8.7v-17.3v-17.3l15-8.7L1168.6,1268.8z
				 M1288.1,1258.7l17.2,10l17.2,10v19.9v19.9l-17.2,10l-17.2,10l-17.2-10l-17.2-10v-19.9v-19.9l17.2-10L1288.1,1258.7z
				 M1229.1,1363l17.2,10l17.2,10v19.9v19.9l-17.2,10l-17.2,10l-17.2-10l-17.2-10v-19.9v-19.9l17.2-10L1229.1,1363z M1262.9,1057.6
				h143.8l75.1,130v0.1l20.9,36.2l-70.9,113.6l90.2,156.2h-212l-33.6-58.2l-1-48.4l23-34l46.3,80.2h73l-56.1-97.2l70.9-113.6
				l-2.8-4.8l-0.1,0L1372,1118h-47.4l7-4v-35l-30.3-17.5L1262.9,1057.6z"/>
		</defs>
		<use xlink:href="#SVGID_00000145741252215095336800000013012605349222857372_"  style="overflow:visible;fill:#FFFFFF;"/>
		<clipPath id="SVGID_00000067214407752455688640000003666644987884164542_">
			<use xlink:href="#SVGID_00000145741252215095336800000013012605349222857372_"  style="overflow:visible;"/>
		</clipPath>
		
			<rect x="922" y="1021.2" style="clip-path:url(#SVGID_00000067214407752455688640000003666644987884164542_);fill:#FFFFFF;stroke:#000000;stroke-width:5;stroke-miterlimit:10;" width="600" height="472.5"/>
		
			<use xlink:href="#SVGID_00000145741252215095336800000013012605349222857372_"  style="overflow:visible;fill:none;stroke:#000000;stroke-width:5;stroke-miterlimit:10;"/>
	</g>
</g>
</svg>
